<svg xmlns="http://www.w3.org/2000/svg" width="373" height="73" viewBox="0 0 373 73" fill="none"><path d="M76.0501 26.1589C80.8501 21.4589 85.1501 17.0589 87.8501 14.3589C89.6501 12.5589 90.7501 11.4589 90.7501 11.4589C91.9501 10.2589 92.4501 8.45894 92.0501 6.85894C91.8501 6.25894 91.6501 5.65895 91.2501 5.05895C91.1501 4.85895 90.9501 4.75894 90.7501 4.55895C90.0501 3.95895 88.9501 3.55894 88.1501 3.15894C86.9501 2.65894 85.7501 2.25894 84.5501 1.75894C65.9501 -4.94106 54.3501 9.65894 54.3501 9.65894L45.8501 18.1589L35.9501 28.0589L27.6501 36.1589L6.55008 56.8589L6.3501 57.0589C5.3501 58.1589 5.3501 59.7589 6.3501 60.8589C7.4501 61.8589 9.05009 61.8589 10.1501 60.8589L17.9501 52.8589L19.3501 51.4589L21.3501 49.3589C22.3501 48.2589 24.0501 48.2589 25.1501 49.3589C26.2501 50.3589 26.2501 52.0589 25.1501 53.1589L23.1501 55.2589L21.4501 56.9589C20.8501 57.5589 20.6501 58.2589 20.7501 59.0589C20.7501 59.6589 21.0501 60.2589 21.5501 60.7589C22.0501 61.2589 22.6501 61.4589 23.3501 61.4589C24.0501 61.4589 24.7501 61.2589 25.3501 60.6589C26.3501 59.5589 28.0501 59.5589 29.1501 60.6589C30.0501 61.5589 30.1501 62.9589 29.4501 63.9589C29.3501 64.1589 29.2501 64.2589 29.1501 64.4589L27.1501 66.5589L25.4501 68.2589C24.4501 69.3589 24.4501 70.9589 25.4501 72.0589C26.5501 73.0589 28.1501 73.0589 29.2501 72.0589L36.0501 65.7589L57.6501 45.6589L57.2501 45.2589L60.2501 42.2589L76.0501 26.1589Z" fill="#374A5E"></path><path d="M38.05 26.0586L27.75 36.1586C27.75 36.1586 38.65 52.8586 36.05 65.5586L57.65 45.4586L38.05 26.0586Z" fill="#374A5E"></path><path opacity="0.15" d="M38.05 26.0586L27.75 36.1586C27.75 36.1586 38.65 52.8586 36.05 65.5586L57.65 45.4586L38.05 26.0586Z" fill="url(#paint0_linear_115_359)"></path><path d="M27.7499 36.1589L6.64993 56.8589L6.44995 57.0589C5.44995 58.1589 5.44995 59.7589 6.44995 60.8589C7.54995 61.8589 9.14994 61.8589 10.2499 60.8589L18.0499 52.8589L19.3499 51.4589L21.3499 49.3589C22.3499 48.2589 24.0499 48.2589 25.1499 49.3589C26.2499 50.3589 26.2499 52.0589 25.1499 53.1589L23.1499 55.2589L21.45 56.9589C20.85 57.5589 20.6499 58.2589 20.7499 59.0589C20.7499 59.6589 21.0499 60.2589 21.5499 60.7589C22.0499 61.2589 22.6499 61.4589 23.3499 61.4589C24.0499 61.4589 24.7499 61.2589 25.3499 60.6589C26.3499 59.5589 28.0499 59.5589 29.1499 60.6589C30.0499 61.5589 30.15 62.9589 29.45 63.9589C29.35 64.1589 29.2499 64.2589 29.1499 64.4589L27.1499 66.5589L25.45 68.2589C24.45 69.3589 24.45 70.9589 25.45 72.0589C26.55 73.0589 28.1499 73.0589 29.2499 72.0589L36.0499 65.7589C38.6499 52.9589 27.7499 36.1589 27.7499 36.1589Z" fill="#374A5E"></path><path d="M0.950012 62.7589L0.75 62.9589C-0.25 64.0589 -0.25 65.6589 0.75 66.7589C1.85 67.7589 3.44999 67.7589 4.54999 66.7589L4.75 66.5589C5.75 65.4589 5.75 63.8589 4.75 62.7589C3.65 61.7589 1.95001 61.7589 0.950012 62.7589Z" fill="#374A5E"></path><path d="M16.2499 62.3589L13.45 65.2589C12.45 66.3589 12.45 67.9589 13.45 69.0589C14.55 70.0589 16.1499 70.0589 17.2499 69.0589L20.0499 66.1589C21.0499 65.0589 21.0499 63.4589 20.0499 62.3589C19.0499 61.2589 17.3499 61.2589 16.2499 62.3589Z" fill="#374A5E"></path><path d="M76.05 26.1589C65.15 25.9589 54.9501 23.0589 45.9501 18.1589L36.05 28.0589C46.45 34.0589 48.3501 48.6589 48.7501 53.6589L60.2501 42.1589L76.05 26.1589Z" fill="#374A5E"></path><path d="M54.4501 9.65894C54.4501 9.65894 66.0501 -4.94106 84.6501 1.75894C85.8501 2.15894 87.0501 2.55894 88.2501 3.15894C89.0501 3.55894 90.0501 3.95895 90.8501 4.55895C91.0501 4.75894 91.1501 4.85895 91.3501 5.05895C91.7501 5.55895 92.0501 6.15894 92.1501 6.85894C92.5501 8.45894 92.0501 10.2589 90.8501 11.4589C90.8501 11.4589 89.7501 12.5589 87.9501 14.3589C79.7501 17.9589 70.6501 19.9589 61.1501 19.9589C55.9501 19.9589 50.85 19.3589 46.05 18.2589L54.4501 9.65894Z" fill="#374A5E"></path><path d="M61.1501 19.8589C70.6501 19.8589 79.7501 17.8589 87.9501 14.2589C85.2501 16.9589 80.8501 21.3589 76.1501 26.0589C65.2501 25.8589 55.05 22.9589 46.05 18.0589C50.85 19.2589 55.9501 19.8589 61.1501 19.8589Z" fill="#374A5E"></path><path opacity="0.15" d="M61.1501 19.8589C70.6501 19.8589 79.7501 17.8589 87.9501 14.2589C85.2501 16.9589 80.8501 21.3589 76.1501 26.0589C65.2501 25.8589 55.05 22.9589 46.05 18.0589C50.85 19.2589 55.9501 19.8589 61.1501 19.8589Z" fill="url(#paint1_linear_115_359)"></path><path opacity="0.2" d="M54.4501 9.65894C54.4501 9.65894 66.0501 -4.94106 84.6501 1.75894C85.8501 2.15894 87.0501 2.55894 88.2501 3.15894C89.0501 3.55894 90.0501 3.95895 90.8501 4.55895C91.0501 4.75894 91.1501 4.85895 91.3501 5.05895C91.7501 5.55895 92.0501 6.15894 92.1501 6.85894C92.5501 8.45894 92.0501 10.2589 90.8501 11.4589C90.8501 11.4589 89.7501 12.5589 87.9501 14.3589C79.7501 17.9589 70.6501 19.9589 61.1501 19.9589C55.9501 19.9589 50.85 19.3589 46.05 18.2589L54.4501 9.65894Z" fill="url(#paint2_linear_115_359)"></path><path opacity="0.15" d="M87.9501 14.3594C79.7501 17.9594 70.6501 19.9594 61.1501 19.9594C55.9501 19.9594 50.85 19.3594 46.05 18.2594" stroke="url(#paint3_linear_115_359)" stroke-width="0.2891" stroke-miterlimit="10"></path><path opacity="0.15" d="M76.0499 26.1589C65.1499 25.9589 54.95 23.0589 45.95 18.1589" stroke="url(#paint4_linear_115_359)" stroke-width="0.2891" stroke-miterlimit="10"></path><path opacity="0.15" d="M27.75 36.1589C27.75 36.1589 38.65 52.8589 36.05 65.5589" stroke="url(#paint5_linear_115_359)" stroke-width="0.2891" stroke-miterlimit="10"></path><path d="M46.4499 18.8593C46.3499 18.6593 46.2499 18.5593 46.1499 18.3593C48.9499 19.8593 51.5499 21.8593 53.8499 24.1593L90.9499 61.1593C92.7499 62.9593 92.6499 66.0593 90.7499 67.7593C90.1499 68.2593 89.5499 68.5593 88.8499 68.8593C86.3499 69.9593 83.8499 71.0593 81.1499 71.6593C78.3499 72.2593 75.5499 72.4593 72.6499 72.1593C72.1499 64.6593 68.5499 40.6593 46.4499 18.8593Z" fill="url(#paint6_linear_115_359)"></path><path opacity="0.4" d="M46.4499 18.8593C46.3499 18.6593 46.2499 18.5593 46.1499 18.3593C48.9499 19.8593 51.5499 21.8593 53.8499 24.1593L90.9499 61.1593C92.7499 62.9593 92.6499 66.0593 90.7499 67.7593C90.1499 68.2593 89.5499 68.5593 88.8499 68.8593C86.3499 69.9593 83.8499 71.0593 81.1499 71.6593C78.3499 72.2593 75.5499 72.4593 72.6499 72.1593C72.1499 64.6593 68.5499 40.6593 46.4499 18.8593Z" fill="url(#paint7_linear_115_359)"></path><path d="M16.15 21.359C16.35 20.759 16.55 20.159 16.95 19.559C17.05 19.359 17.25 19.259 17.45 19.059C18.15 18.459 19.25 18.059 20.05 17.659C21.25 17.159 22.35 16.659 23.65 16.259C26.55 15.359 29.55 14.959 32.55 14.959C35.15 15.059 37.85 15.459 40.35 16.059C42.25 16.559 44.05 17.259 45.75 18.059C46.05 18.259 46.25 18.559 46.45 18.759C51.25 26.359 59.25 42.759 55.35 63.559C49.65 57.859 17.45 25.859 17.45 25.859C16.25 24.759 15.75 22.959 16.15 21.359Z" fill="url(#paint8_linear_115_359)"></path><path opacity="0.4" d="M16.15 21.359C16.35 20.759 16.55 20.159 16.95 19.559C17.05 19.359 17.25 19.259 17.45 19.059C18.15 18.459 19.25 18.059 20.05 17.659C21.25 17.159 22.35 16.659 23.65 16.259C26.55 15.359 29.55 14.959 32.55 14.959C35.15 15.059 37.85 15.459 40.35 16.059C42.25 16.559 44.05 17.259 45.75 18.059C46.05 18.259 46.25 18.559 46.45 18.759C51.25 26.359 59.25 42.759 55.35 63.559C49.65 57.859 17.45 25.859 17.45 25.859C16.25 24.759 15.75 22.959 16.15 21.359Z" fill="url(#paint9_linear_115_359)"></path><path d="M46.4502 18.8593C68.6502 40.6593 72.1502 64.6593 72.6502 72.2593C72.4502 72.2593 72.3502 72.2593 72.1502 72.1593C69.1502 71.8593 66.2502 70.9593 63.5502 69.6593C60.8502 68.3593 58.2502 66.5593 56.1502 64.4593C56.1502 64.4593 55.8502 64.1593 55.2502 63.6593C59.1502 42.8593 51.2502 26.4593 46.4502 18.8593Z" fill="url(#paint10_linear_115_359)"></path><path opacity="0.3" d="M46.4502 18.8593C68.6502 40.6593 72.1502 64.6593 72.6502 72.2593" stroke="url(#paint11_linear_115_359)" stroke-width="0.5782" stroke-miterlimit="10"></path><g opacity="0.3"><path d="M46.4502 18.8593C47.5502 20.4593 48.5502 22.1593 49.4502 23.8593C50.3502 25.5593 51.2502 27.3593 51.9502 29.1593C53.4502 32.7593 54.5502 36.5593 55.3502 40.3593C56.1502 44.1593 56.5502 48.0593 56.5502 52.0593C56.5502 55.9593 56.0502 59.8593 55.3502 63.6593C55.9502 59.7593 56.1502 55.9593 56.1502 52.0593C56.0502 48.1593 55.6502 44.2593 54.8502 40.5593C53.2502 32.9593 50.3502 25.6593 46.4502 18.8593Z" fill="url(#paint12_linear_115_359)"></path></g><path d="M0.950012 62.7586L0.75 62.9586C-0.25 64.0586 -0.25 65.6586 0.75 66.7586C1.85 67.7586 3.44999 67.7586 4.54999 66.7586L4.75 66.5586C5.75 65.4586 5.75 63.8586 4.75 62.7586C3.75 61.6586 1.95001 61.7586 0.950012 62.7586Z" fill="#374A5E"></path><path d="M16.2499 62.3589L13.45 65.2589C12.45 66.3589 12.45 67.9589 13.45 69.0589C14.55 70.0589 16.1499 70.0589 17.2499 69.0589L20.0499 66.1589C21.0499 65.0589 21.0499 63.4589 20.0499 62.3589C19.0499 61.2589 17.3499 61.2589 16.2499 62.3589Z" fill="#374A5E"></path><path d="M120.676 24.1745L110.676 37.3629L121.111 51.131H113.575L106.908 42.2904L100.241 51.131H92.8501L103.14 37.5078L93.1399 24.1745H100.531L106.908 32.5803L113.14 24.1745H120.676Z" fill="#374A5E"></path><path d="M128.937 47.6522V55.9131C128.937 56.9276 128.357 57.9421 127.633 58.5218L123.72 61.2754C123.285 61.5653 122.85 61.2754 122.85 60.8406V24.174H128.502V28.087C130.386 25.0435 133.43 23.5943 137.633 23.5943C141.546 23.5943 144.589 24.8986 146.763 27.6522C148.937 30.4059 150.097 33.7392 150.097 37.7972C150.097 41.8551 148.937 45.1885 146.763 47.7972C144.589 50.5508 141.401 51.8551 137.633 51.8551C133.575 51.8551 130.676 50.4059 128.937 47.6522ZM128.647 37.6522C128.647 40.116 129.372 42.145 130.676 43.8841C131.981 45.4783 133.865 46.3479 136.183 46.3479C138.502 46.3479 140.241 45.4783 141.691 43.8841C143.14 42.2899 143.72 40.116 143.72 37.7972C143.72 35.3334 142.995 33.1595 141.691 31.5653C140.241 29.9711 138.502 29.1015 136.183 29.1015C133.865 29.1015 131.981 29.9711 130.676 31.5653C129.372 33.0146 128.647 35.1885 128.647 37.6522Z" fill="#374A5E"></path><path d="M171.98 42.2904L177.488 43.7397C176.473 46.2034 174.879 48.0875 172.85 49.5368C170.676 50.986 168.212 51.7107 165.314 51.7107C161.256 51.7107 158.067 50.4063 155.604 47.6527C153.14 45.044 151.835 41.5657 151.835 37.5078C151.835 33.5947 153.14 30.1165 155.604 27.5078C158.067 24.7541 161.256 23.4498 165.314 23.4498C169.227 23.4498 172.415 24.7541 174.879 27.3628C177.343 29.9715 178.502 33.3049 178.502 37.3628V39.2469H157.922C158.212 41.4208 158.937 43.1599 160.241 44.3194C161.546 45.6237 163.285 46.2034 165.459 46.2034C168.647 46.4933 170.821 45.044 171.98 42.2904ZM165.314 28.6672C163.43 28.6672 161.691 29.2469 160.531 30.4063C159.227 31.5657 158.502 33.015 158.212 35.044H172.56C172.27 33.1599 171.546 31.5657 170.241 30.4063C168.937 29.2469 167.198 28.6672 165.314 28.6672Z" fill="#374A5E"></path><path d="M200.531 42.2904L206.039 43.7397C205.024 46.2034 203.43 48.0875 201.401 49.5368C199.227 50.986 196.763 51.7107 193.865 51.7107C189.807 51.7107 186.618 50.4063 184.155 47.6527C181.691 45.044 180.386 41.5657 180.386 37.5078C180.386 33.5947 181.691 30.1165 184.155 27.5078C186.618 24.7541 189.807 23.4498 193.865 23.4498C197.778 23.4498 200.966 24.7541 203.43 27.3628C205.894 29.9715 207.053 33.3049 207.053 37.3628V39.2469H186.473C186.763 41.4208 187.488 43.1599 188.792 44.3194C190.097 45.6237 191.836 46.2034 194.01 46.2034C197.198 46.4933 199.372 45.044 200.531 42.2904ZM193.72 28.6672C191.836 28.6672 190.097 29.2469 188.937 30.4063C187.633 31.5657 186.908 33.015 186.618 35.044H200.966C200.676 33.1599 199.952 31.5657 198.647 30.4063C197.343 29.2469 195.749 28.6672 193.72 28.6672Z" fill="#374A5E"></path><path d="M229.951 27.7972V13.3044C229.951 12.8696 230.386 12.5798 230.821 12.8696L235.169 16.058C235.749 16.4928 236.038 17.0725 236.038 17.7972V51.2754H230.386V47.3624C228.502 50.4059 225.459 51.8552 221.256 51.8552C217.343 51.8552 214.299 50.5508 212.125 47.7972C209.951 45.0436 208.792 41.7102 208.792 37.7972C208.792 33.8841 209.951 30.4059 212.125 27.6522C214.299 24.8986 217.343 23.5943 221.256 23.5943C225.169 23.5943 228.067 25.0436 229.951 27.7972ZM230.241 37.6522C230.241 35.1885 229.517 33.0146 228.212 31.4204C226.908 29.8262 225.024 28.9566 222.705 28.9566C220.386 28.9566 218.647 29.8262 217.198 31.4204C215.749 33.0146 215.169 35.1885 215.169 37.6522C215.169 40.116 215.894 42.145 217.198 43.7392C218.647 45.3334 220.386 46.203 222.705 46.203C225.024 46.203 226.908 45.3334 228.212 43.7392C229.517 42.2899 230.241 40.2609 230.241 37.6522Z" fill="#374A5E"></path><path d="M238.067 43.5937L243.864 42.7241C244.009 43.8835 244.444 44.898 245.459 45.6227C246.473 46.3473 247.778 46.7821 249.662 46.7821C251.256 46.7821 252.415 46.4922 253.285 45.9125C254.154 45.3328 254.589 44.6082 254.589 43.7386C254.589 42.7241 254.009 41.9995 252.995 41.4198C251.98 40.985 250.676 40.5502 249.227 40.2604C247.778 39.9705 246.328 39.6806 244.734 39.2459C243.285 38.956 241.98 38.2314 240.821 36.927C239.807 35.7676 239.227 34.1734 239.227 32.1444C239.227 29.8256 240.241 27.7966 242.125 26.2024C244.009 24.6082 246.618 23.7386 249.951 23.7386C253.14 23.7386 255.459 24.4633 257.198 26.0575C258.937 27.6517 259.951 29.3908 260.386 31.5647L254.589 32.5792C254.444 31.5647 254.009 30.5502 253.14 29.8256C252.27 29.1009 251.256 28.6662 249.807 28.6662C248.357 28.6662 247.198 28.956 246.328 29.5357C245.459 30.1154 245.169 30.8401 245.169 31.8546C245.169 32.7241 245.749 33.4488 246.763 33.8835C247.778 34.3183 249.082 34.7531 250.531 35.043C251.98 35.3328 253.43 35.7676 255.024 36.0575C256.473 36.3473 257.778 37.2169 258.792 38.3763C259.806 39.5357 260.386 41.2749 260.386 43.3038C260.386 45.7676 259.372 47.7966 257.488 49.3908C255.459 50.985 252.705 51.7096 249.082 51.7096C245.604 51.7096 242.995 50.985 241.111 49.3908C239.517 48.0864 238.502 46.0575 238.067 43.5937Z" fill="#374A5E"></path><path d="M276.328 45.6231V50.9854C275.604 51.1304 274.444 51.2753 273.14 51.2753C267.923 51.2753 265.314 48.6666 265.314 43.3043V29.1014H261.256V24.1738H265.314V18.0869C265.314 17.797 265.749 17.5072 266.038 17.797L270.966 21.2753C271.401 21.5651 271.546 21.9999 271.546 22.4347V24.3188H276.618V29.2463H271.546V42.8695C271.546 45.0434 272.56 46.0579 274.589 46.0579L276.328 45.6231Z" fill="#374A5E"></path><path d="M296.618 39.6817V24.1745H302.85V51.131H297.198V47.6528C296.618 48.8122 295.604 49.8267 294.154 50.5513C292.705 51.276 290.966 51.7107 288.937 51.7107C285.749 51.7107 283.285 50.6962 281.546 48.8122C279.807 46.9281 278.937 44.3194 278.937 41.131V24.1745H285.169V40.4064C285.169 44.4644 286.908 46.4933 290.386 46.4933C292.27 46.4933 293.865 45.9136 295.024 44.7542C296.183 43.5948 296.618 42.0006 296.618 39.6817Z" fill="#374A5E"></path><path d="M326.183 27.7972V13.3044C326.183 12.8696 326.618 12.5798 327.053 12.8696L331.691 16.203C332.126 16.4928 332.415 17.0725 332.415 17.6522V51.2754H326.763V47.3624C324.879 50.4059 321.836 51.8552 317.633 51.8552C313.72 51.8552 310.676 50.5508 308.502 47.7972C306.328 45.0436 305.169 41.7102 305.169 37.7972C305.169 33.8841 306.328 30.4059 308.502 27.6522C310.676 24.8986 313.72 23.5943 317.633 23.5943C321.546 23.5943 324.444 25.0436 326.183 27.7972ZM326.473 37.6522C326.473 35.1885 325.749 33.0146 324.444 31.4204C323.14 29.8262 321.256 28.9566 318.937 28.9566C316.618 28.9566 314.879 29.8262 313.43 31.4204C311.981 33.0146 311.401 35.1885 311.401 37.6522C311.401 40.116 312.125 42.145 313.43 43.7392C314.879 45.3334 316.618 46.203 318.937 46.203C321.256 46.203 323.14 45.3334 324.444 43.7392C325.749 42.2899 326.473 40.2609 326.473 37.6522Z" fill="#374A5E"></path><path d="M339.082 19.6812C337.923 19.6812 337.053 19.3913 336.328 18.6667C335.604 17.942 335.169 17.0725 335.169 15.913C335.169 14.7536 335.604 13.8841 336.328 13.1594C337.053 12.4348 337.923 12 339.082 12C340.241 12 341.111 12.4348 341.836 13.1594C342.56 13.8841 342.995 14.7536 342.995 15.913C342.995 17.0725 342.56 17.942 341.836 18.6667C341.111 19.3913 340.096 19.6812 339.082 19.6812ZM335.894 51.1304V24.1739H342.125V51.1304H335.894Z" fill="#374A5E"></path><path d="M358.792 51.8551C354.589 51.8551 351.256 50.5508 348.647 47.7972C346.038 45.0435 344.734 41.7102 344.734 37.7972C344.734 33.8841 346.038 30.5508 348.647 27.7972C351.256 25.0435 354.589 23.5943 358.792 23.5943C362.995 23.5943 366.328 25.0435 368.937 27.7972C371.546 30.5508 372.85 33.8841 372.85 37.7972C372.85 41.7102 371.546 45.0435 368.937 47.7972C366.328 50.4059 362.85 51.8551 358.792 51.8551ZM350.966 37.6522C350.966 40.2609 351.691 42.2899 353.14 43.8841C354.589 45.4783 356.473 46.203 358.792 46.203C361.111 46.203 362.995 45.4783 364.444 43.8841C365.894 42.2899 366.618 40.2609 366.618 37.6522C366.618 35.0435 365.894 33.0146 364.444 31.4204C362.995 29.8261 361.111 29.1015 358.792 29.1015C356.473 29.1015 354.734 29.9711 353.14 31.4204C351.691 33.0146 350.966 35.1885 350.966 37.6522Z" fill="#374A5E"></path><defs><linearGradient id="paint0_linear_115_359" x1="34.9657" y1="65.6347" x2="39.1655" y2="52.1271" gradientUnits="userSpaceOnUse"><stop stop-color="white"></stop><stop offset="1" stop-color="white" stop-opacity="0"></stop></linearGradient><linearGradient id="paint1_linear_115_359" x1="52.292" y1="20.2245" x2="82.6299" y2="20.2245" gradientUnits="userSpaceOnUse"><stop stop-color="white"></stop><stop offset="1" stop-color="white" stop-opacity="0"></stop></linearGradient><linearGradient id="paint2_linear_115_359" x1="92.1736" y1="5.25604" x2="77.9124" y2="8.32294" gradientUnits="userSpaceOnUse"><stop stop-color="white"></stop><stop offset="1" stop-color="white" stop-opacity="0"></stop></linearGradient><linearGradient id="paint3_linear_115_359" x1="45.9099" y1="17.1142" x2="87.9845" y2="17.1142" gradientUnits="userSpaceOnUse"><stop offset="0.2" stop-color="white" stop-opacity="0"></stop><stop offset="0.5" stop-color="white"></stop><stop offset="0.8" stop-color="white" stop-opacity="0"></stop></linearGradient><linearGradient id="paint4_linear_115_359" x1="45.9443" y1="22.1653" x2="76.0851" y2="22.1653" gradientUnits="userSpaceOnUse"><stop offset="0.2" stop-color="white" stop-opacity="0"></stop><stop offset="0.5" stop-color="white"></stop><stop offset="0.8" stop-color="white" stop-opacity="0"></stop></linearGradient><linearGradient id="paint5_linear_115_359" x1="32.1115" y1="65.6591" x2="32.1115" y2="36.128" gradientUnits="userSpaceOnUse"><stop offset="0.2" stop-color="white" stop-opacity="0"></stop><stop offset="0.5" stop-color="white"></stop><stop offset="0.8" stop-color="white" stop-opacity="0"></stop></linearGradient><linearGradient id="paint6_linear_115_359" x1="54.975" y1="23.2634" x2="78.9749" y2="62.0693" gradientUnits="userSpaceOnUse"><stop stop-color="#FF066C"></stop><stop offset="0.1408" stop-color="#FF5227"></stop></linearGradient><linearGradient id="paint7_linear_115_359" x1="39.7373" y1="24.5725" x2="70.7113" y2="55.6347" gradientUnits="userSpaceOnUse"><stop></stop><stop offset="0.7868" stop-opacity="0"></stop></linearGradient><linearGradient id="paint8_linear_115_359" x1="24.4975" y1="14.9576" x2="53.128" y2="43.6577" gradientUnits="userSpaceOnUse"><stop stop-color="#FF5227"></stop><stop offset="1" stop-color="#FF066C"></stop></linearGradient><linearGradient id="paint9_linear_115_359" x1="49.7162" y1="65.1792" x2="37.4767" y2="35.1671" gradientUnits="userSpaceOnUse"><stop></stop><stop offset="0.7868" stop-opacity="0"></stop></linearGradient><linearGradient id="paint10_linear_115_359" x1="56.808" y1="35.6596" x2="62.852" y2="61.3996" gradientUnits="userSpaceOnUse"><stop stop-color="#FF5227"></stop><stop offset="1" stop-color="#FF066C"></stop></linearGradient><linearGradient id="paint11_linear_115_359" x1="49.0585" y1="17.5557" x2="74.3169" y2="71.6526" gradientUnits="userSpaceOnUse"><stop offset="0.2" stop-color="white" stop-opacity="0"></stop><stop offset="0.5" stop-color="white"></stop><stop offset="0.8" stop-color="white" stop-opacity="0"></stop></linearGradient><linearGradient id="paint12_linear_115_359" x1="59.5862" y1="26.197" x2="42.247" y2="56.2638" gradientUnits="userSpaceOnUse"><stop offset="0.2" stop-color="white" stop-opacity="0"></stop><stop offset="0.5" stop-color="white"></stop><stop offset="0.8" stop-color="white" stop-opacity="0"></stop></linearGradient></defs></svg>